
<?xml version="1.0" encoding="utf-8"?>
<!-- Generator: Adobe Illustrator 25.4.1, SVG Export Plug-In . SVG Version: 6.00 Build 0)  -->
<svg version="1.1" id="main_art" xmlns="http://www.w3.org/2000/svg" xmlns:xlink="http://www.w3.org/1999/xlink" x="0px" y="0px"
	 width="820px" height="334.11px" viewBox="0 0 820 334.11" style="enable-background:new 0 0 820 334.11;" xml:space="preserve">
<style type="text/css">
	.st0{opacity:0.2;fill:#00A9D7;}
	.st1{fill:#FFFFFF;}
	.st2{fill:#FF414E;}
	.st3{fill:#333333;}
	.st4{display:none;fill:#1CD0BB;}
	.st5{fill:url(#SVGID_1_);}
	.st6{fill:url(#SVGID_00000170988858317608423180000012672985848690575502_);}
	.st7{fill:url(#SVGID_00000129164728207654358520000003838541080619815603_);}
	.st8{fill:url(#SVGID_00000031898946892590608230000016759740341982569603_);}
	.st9{fill:url(#SVGID_00000138573959052771597980000011615715127850241201_);}
	.st10{fill:url(#SVGID_00000011740738656080737970000015502944465554046090_);}
	.st11{fill:url(#SVGID_00000076594347516059989690000007027397585513064627_);}
</style>
<rect x="234.377" y="100.864" class="st0" width="346.7" height="140.997"/>
<g>
	<rect x="227.494" y="71.6" class="st1" width="18.217" height="23.943"/>
	<g>
		<polygon class="st2" points="246.712,96.543 242.356,96.543 242.356,94.543 244.712,94.543 244.712,92.188 246.712,92.188 		"/>
		<rect x="233.69" y="94.543" class="st2" width="5.826" height="2"/>
		<polygon class="st2" points="230.849,96.543 226.494,96.543 226.494,92.188 228.494,92.188 228.494,94.543 230.849,94.543 		"/>
		<rect x="226.494" y="79.209" class="st2" width="2" height="8.725"/>
		<polygon class="st2" points="228.494,74.956 226.494,74.956 226.494,70.6 230.849,70.6 230.849,72.6 228.494,72.6 		"/>
		<rect x="233.69" y="70.6" class="st2" width="5.826" height="2"/>
		<polygon class="st2" points="246.712,74.956 244.712,74.956 244.712,72.6 242.356,72.6 242.356,70.6 246.712,70.6 		"/>
		<rect x="244.712" y="79.209" class="st2" width="2" height="8.725"/>
	</g>
</g>
<g>
	<rect x="92.992" y="152.134" class="st3" width="29.373" height="2"/>
	<g>
		<polygon class="st3" points="121.198,157.123 128.106,153.134 121.198,149.145 		"/>
	</g>
</g>
<g>
	<rect x="210.2" y="152.134" class="st3" width="29.373" height="2"/>
	<g>
		<polygon class="st3" points="238.405,157.123 245.314,153.134 238.405,149.145 		"/>
	</g>
</g>
<g>
	<rect x="327.407" y="152.134" class="st3" width="29.374" height="2"/>
	<g>
		<polygon class="st3" points="355.613,157.123 362.522,153.134 355.613,149.145 		"/>
	</g>
</g>
<g>
	<rect x="444.615" y="152.134" class="st3" width="29.373" height="2"/>
	<g>
		<polygon class="st3" points="472.821,157.123 479.73,153.134 472.821,149.145 		"/>
	</g>
</g>
<g>
	<rect x="561.823" y="152.134" class="st3" width="29.373" height="2"/>
	<g>
		<polygon class="st3" points="590.029,157.123 596.938,153.134 590.029,149.145 		"/>
	</g>
</g>
<g>
	<rect x="679.031" y="152.134" class="st3" width="29.373" height="2"/>
	<g>
		<polygon class="st3" points="707.237,157.123 714.145,153.134 707.237,149.145 		"/>
	</g>
</g>
<polygon class="st4" points="108.308,135.118 76.099,168.255 91.877,168.347 91.877,196.686 91.877,196.686 91.877,234.569 
	76.099,234.477 107.639,267.882 139.849,234.745 124.07,234.653 124.07,206.314 124.071,206.314 124.071,168.432 139.849,168.524 
	"/>
<polygon class="st4" points="275.246,135.118 243.037,168.255 258.815,168.347 258.815,196.686 258.815,196.686 258.815,234.569 
	243.037,234.477 274.577,267.882 306.787,234.745 291.009,234.653 291.009,206.314 291.009,206.314 291.009,168.432 
	306.787,168.524 "/>
<polygon class="st4" points="556.99,135.118 524.78,168.255 540.558,168.347 540.558,196.686 540.558,196.686 540.558,234.569 
	524.78,234.477 556.32,267.882 588.53,234.745 572.752,234.653 572.752,206.314 572.752,206.314 572.752,168.432 588.53,168.524 "/>
<polygon class="st4" points="698.973,135.118 666.763,168.255 682.542,168.347 682.542,196.686 682.541,196.686 682.541,234.569 
	666.763,234.477 698.304,267.882 730.513,234.745 714.735,234.653 714.735,206.314 714.735,206.314 714.735,168.432 
	730.513,168.524 "/>
<g>
	<linearGradient id="SVGID_1_" gradientUnits="userSpaceOnUse" x1="14.6805" y1="156.251" x2="100.536" y2="153.2109">
		<stop  offset="0" style="stop-color:#00B4E5"/>
		<stop  offset="1" style="stop-color:#1CD0BB"/>
	</linearGradient>
	<rect x="16.216" y="109.853" class="st5" width="82.785" height="89.756"/>
</g>
<g>
	
		<linearGradient id="SVGID_00000016072058993369433340000006797425825825016254_" gradientUnits="userSpaceOnUse" x1="130.633" y1="156.251" x2="216.4885" y2="153.2109">
		<stop  offset="0" style="stop-color:#00B4E5"/>
		<stop  offset="1" style="stop-color:#1CD0BB"/>
	</linearGradient>
	
		<rect x="132.168" y="109.853" style="fill:url(#SVGID_00000016072058993369433340000006797425825825016254_);" width="82.785" height="89.756"/>
</g>
<g>
	
		<linearGradient id="SVGID_00000127017094213318353350000004663977502658418335_" gradientUnits="userSpaceOnUse" x1="249.3629" y1="156.251" x2="335.2185" y2="153.2109">
		<stop  offset="0" style="stop-color:#00B4E5"/>
		<stop  offset="1" style="stop-color:#1CD0BB"/>
	</linearGradient>
	
		<rect x="250.898" y="109.853" style="fill:url(#SVGID_00000127017094213318353350000004663977502658418335_);" width="82.785" height="89.756"/>
</g>
<g>
	
		<linearGradient id="SVGID_00000142157050405243399240000001760962114483400630_" gradientUnits="userSpaceOnUse" x1="367.1369" y1="156.251" x2="452.9925" y2="153.2109">
		<stop  offset="0" style="stop-color:#00B4E5"/>
		<stop  offset="1" style="stop-color:#1CD0BB"/>
	</linearGradient>
	
		<rect x="368.672" y="109.853" style="fill:url(#SVGID_00000142157050405243399240000001760962114483400630_);" width="82.785" height="89.756"/>
</g>
<g>
	
		<linearGradient id="SVGID_00000051379118984400946310000001973710259600542909_" gradientUnits="userSpaceOnUse" x1="484.9109" y1="156.251" x2="570.7665" y2="153.2109">
		<stop  offset="0" style="stop-color:#00B4E5"/>
		<stop  offset="1" style="stop-color:#1CD0BB"/>
	</linearGradient>
	
		<rect x="486.446" y="109.853" style="fill:url(#SVGID_00000051379118984400946310000001973710259600542909_);" width="82.785" height="89.756"/>
</g>
<g>
	
		<linearGradient id="SVGID_00000060024564247632327580000003325083387528365472_" gradientUnits="userSpaceOnUse" x1="602.6849" y1="156.251" x2="688.5405" y2="153.2109">
		<stop  offset="0" style="stop-color:#00B4E5"/>
		<stop  offset="1" style="stop-color:#1CD0BB"/>
	</linearGradient>
	
		<rect x="604.22" y="109.853" style="fill:url(#SVGID_00000060024564247632327580000003325083387528365472_);" width="82.785" height="89.756"/>
</g>
<g>
	
		<linearGradient id="SVGID_00000131325455652576861140000004520392514330358410_" gradientUnits="userSpaceOnUse" x1="720.459" y1="156.251" x2="806.3145" y2="153.2109">
		<stop  offset="0" style="stop-color:#00B4E5"/>
		<stop  offset="1" style="stop-color:#1CD0BB"/>
	</linearGradient>
	
		<rect x="721.994" y="109.853" style="fill:url(#SVGID_00000131325455652576861140000004520392514330358410_);" width="82.785" height="89.756"/>
</g>
<g>
	<g>
		<path class="st3" d="M45.302,210.666h3.742c1.056,0,1.883,0.312,2.423,0.84c0.443,0.456,0.695,1.079,0.695,1.811v0.024
			c0,1.379-0.827,2.207-1.991,2.542l2.268,3.178h-1.751l-2.063-2.926h-1.847v2.926h-1.476V210.666z M48.937,214.827
			c1.055,0,1.727-0.551,1.727-1.403V213.4c0-0.899-0.647-1.391-1.739-1.391h-2.146v2.818H48.937z"/>
		<path class="st3" d="M58.8,218.089c-0.72,0.672-1.56,1.092-2.567,1.092c-1.57,0-2.746-0.948-2.746-2.399v-0.024
			c0-1.08,0.636-1.859,1.787-2.351c-0.479-0.612-0.695-1.14-0.695-1.751v-0.024c0-1.127,0.911-2.11,2.41-2.11
			c1.331,0,2.23,0.899,2.23,2.027v0.024c0,1.103-0.731,1.763-1.847,2.183l1.439,1.463c0.323-0.48,0.623-1.032,0.899-1.619
			l1.115,0.587c-0.336,0.672-0.708,1.332-1.14,1.907l1.332,1.343l-1.104,0.792L58.8,218.089z M57.96,217.226l-1.871-1.907
			c-0.779,0.336-1.115,0.852-1.115,1.392v0.024c0,0.708,0.588,1.223,1.403,1.223C56.952,217.958,57.48,217.682,57.96,217.226z
			 M57.912,212.657v-0.024c0-0.563-0.396-0.947-0.947-0.947c-0.601,0-1.008,0.42-1.008,1.007v0.024c0,0.42,0.168,0.732,0.636,1.248
			C57.456,213.652,57.912,213.256,57.912,212.657z"/>
		<path class="st3" d="M62.569,210.666H65.7c2.639,0,4.461,1.811,4.461,4.174v0.024c0,2.363-1.822,4.198-4.461,4.198h-3.131V210.666
			z M64.045,212.009v5.709H65.7c1.763,0,2.914-1.188,2.914-2.831v-0.024c0-1.643-1.151-2.854-2.914-2.854H64.045z"/>
	</g>
</g>
<g>
	<g>
		<path class="st3" d="M118.156,210.666h1.571l2.555,3.97l2.555-3.97h1.571v8.396h-1.476v-6.021l-2.65,3.958h-0.048l-2.627-3.934
			v5.997h-1.451V210.666z"/>
		<path class="st3" d="M131.667,210.605h1.367l3.694,8.456h-1.56l-0.852-2.027h-3.97l-0.863,2.027h-1.512L131.667,210.605z
			 M133.778,215.727l-1.451-3.358l-1.439,3.358H133.778z"/>
		<path class="st3" d="M138.292,210.666h1.367l4.498,5.805v-5.805h1.451v8.396h-1.235l-4.63-5.973v5.973h-1.451V210.666z"/>
		<path class="st3" d="M147.76,215.499v-4.833h1.476v4.773c0,1.559,0.804,2.387,2.123,2.387c1.307,0,2.11-0.779,2.11-2.327v-4.833
			h1.476v4.762c0,2.506-1.415,3.766-3.61,3.766C149.151,219.193,147.76,217.934,147.76,215.499z"/>
		<path class="st3" d="M157.096,210.666h6.249v1.343h-4.773v2.291h4.233v1.343h-4.233v3.418h-1.476V210.666z"/>
		<path class="st3" d="M167.103,210.605h1.367l3.694,8.456h-1.56l-0.852-2.027h-3.97l-0.863,2.027h-1.512L167.103,210.605z
			 M169.214,215.727l-1.451-3.358l-1.439,3.358H169.214z"/>
		<path class="st3" d="M172.829,214.887v-0.024c0-2.387,1.786-4.341,4.329-4.341c1.547,0,2.482,0.54,3.286,1.307l-0.947,1.091
			c-0.672-0.624-1.392-1.043-2.351-1.043c-1.596,0-2.771,1.319-2.771,2.962v0.024c0,1.643,1.163,2.975,2.771,2.975
			c1.031,0,1.691-0.408,2.41-1.08l0.948,0.959c-0.876,0.912-1.835,1.487-3.406,1.487
			C174.651,219.205,172.829,217.298,172.829,214.887z"/>
		<path class="st3" d="M184.239,212.033h-2.663v-1.367h6.812v1.367h-2.662v7.028h-1.487V212.033z"/>
		<path class="st3" d="M189.94,215.499v-4.833h1.476v4.773c0,1.559,0.804,2.387,2.123,2.387c1.307,0,2.11-0.779,2.11-2.327v-4.833
			h1.476v4.762c0,2.506-1.416,3.766-3.61,3.766C191.332,219.193,189.94,217.934,189.94,215.499z"/>
		<path class="st3" d="M199.275,210.666h3.742c1.056,0,1.883,0.312,2.423,0.84c0.443,0.456,0.695,1.079,0.695,1.811v0.024
			c0,1.379-0.827,2.207-1.991,2.542l2.268,3.178h-1.751l-2.063-2.926h-1.847v2.926h-1.476V210.666z M202.91,214.827
			c1.055,0,1.727-0.551,1.727-1.403V213.4c0-0.899-0.647-1.391-1.739-1.391h-2.146v2.818H202.91z"/>
		<path class="st3" d="M208.155,210.666h1.476v8.396h-1.476V210.666z"/>
		<path class="st3" d="M211.995,210.666h1.367l4.498,5.805v-5.805h1.451v8.396h-1.235l-4.63-5.973v5.973h-1.451V210.666z"/>
		<path class="st3" d="M221.225,214.887v-0.024c0-2.351,1.799-4.341,4.329-4.341c1.463,0,2.363,0.408,3.227,1.139l-0.936,1.115
			c-0.647-0.552-1.283-0.899-2.351-0.899c-1.548,0-2.723,1.355-2.723,2.962v0.024c0,1.727,1.14,2.999,2.854,2.999
			c0.791,0,1.511-0.252,2.026-0.636v-1.571h-2.146v-1.283h3.574v3.526c-0.828,0.708-2.015,1.308-3.502,1.308
			C222.951,219.205,221.225,217.334,221.225,214.887z"/>
	</g>
</g>
<g>
	<g>
		<path class="st3" d="M250.641,210.666h1.596l2.002,6.225l2.063-6.249h1.247l2.062,6.249l2.003-6.225h1.548l-2.915,8.456h-1.283
			l-2.062-6.033l-2.062,6.033h-1.271L250.641,210.666z"/>
		<path class="st3" d="M266.694,210.605h1.367l3.694,8.456h-1.56l-0.852-2.027h-3.97l-0.863,2.027H263L266.694,210.605z
			 M268.806,215.727l-1.451-3.358l-1.439,3.358H268.806z"/>
		<path class="st3" d="M273.32,210.666h3.742c1.056,0,1.883,0.312,2.423,0.84c0.443,0.456,0.695,1.079,0.695,1.811v0.024
			c0,1.379-0.827,2.207-1.991,2.542l2.268,3.178h-1.751l-2.063-2.926h-1.847v2.926h-1.476V210.666z M276.955,214.827
			c1.055,0,1.727-0.551,1.727-1.403V213.4c0-0.899-0.647-1.391-1.739-1.391h-2.146v2.818H276.955z"/>
		<path class="st3" d="M282.116,210.666h6.225v1.319h-4.749v2.183h4.21v1.319h-4.21v2.255h4.81v1.319h-6.285V210.666z"/>
		<path class="st3" d="M290.276,210.666h1.476v3.49h4.006v-3.49h1.475v8.396h-1.475v-3.538h-4.006v3.538h-1.476V210.666z"/>
		<path class="st3" d="M299.145,214.887v-0.024c0-2.363,1.822-4.341,4.401-4.341c2.578,0,4.377,1.955,4.377,4.317v0.024
			c0,2.363-1.822,4.342-4.401,4.342C300.943,219.205,299.145,217.25,299.145,214.887z M306.376,214.887v-0.024
			c0-1.631-1.188-2.986-2.854-2.986s-2.83,1.332-2.83,2.962v0.024c0,1.631,1.188,2.975,2.854,2.975S306.376,216.519,306.376,214.887
			z"/>
		<path class="st3" d="M309.704,215.499v-4.833h1.476v4.773c0,1.559,0.804,2.387,2.123,2.387c1.307,0,2.11-0.779,2.11-2.327v-4.833
			h1.476v4.762c0,2.506-1.416,3.766-3.61,3.766C311.096,219.193,309.704,217.934,309.704,215.499z"/>
		<path class="st3" d="M318.477,217.838l0.888-1.056c0.804,0.696,1.619,1.091,2.65,1.091c0.911,0,1.487-0.432,1.487-1.055v-0.024
			c0-0.6-0.336-0.924-1.895-1.283c-1.787-0.432-2.795-0.96-2.795-2.507v-0.024c0-1.439,1.199-2.435,2.866-2.435
			c1.224,0,2.195,0.372,3.047,1.055l-0.792,1.115c-0.756-0.563-1.511-0.863-2.278-0.863c-0.864,0-1.367,0.444-1.367,0.996v0.024
			c0,0.647,0.384,0.936,2.003,1.319c1.774,0.432,2.687,1.067,2.687,2.458v0.024c0,1.571-1.235,2.507-2.999,2.507
			C320.695,219.181,319.484,218.737,318.477,217.838z"/>
		<path class="st3" d="M326.84,210.666h6.225v1.319h-4.749v2.183h4.21v1.319h-4.21v2.255h4.81v1.319h-6.285V210.666z"/>
		<path class="st3" d="M286.466,222.666h1.476v8.396h-1.476V222.666z"/>
		<path class="st3" d="M290.306,222.666h1.367l4.498,5.805v-5.805h1.451v8.396h-1.235l-4.63-5.973v5.973h-1.451V222.666z"/>
	</g>
</g>
<g>
	<g>
		<path class="st3" d="M486.272,210.666h1.596l2.002,6.225l2.063-6.249h1.247l2.062,6.249l2.003-6.225h1.548l-2.915,8.456h-1.283
			l-2.062-6.033l-2.062,6.033h-1.271L486.272,210.666z"/>
		<path class="st3" d="M502.326,210.605h1.367l3.694,8.456h-1.56l-0.852-2.027h-3.97l-0.863,2.027h-1.512L502.326,210.605z
			 M504.438,215.727l-1.451-3.358l-1.439,3.358H504.438z"/>
		<path class="st3" d="M508.952,210.666h3.742c1.056,0,1.883,0.312,2.423,0.84c0.443,0.456,0.695,1.079,0.695,1.811v0.024
			c0,1.379-0.827,2.207-1.991,2.542l2.268,3.178h-1.751l-2.063-2.926h-1.847v2.926h-1.476V210.666z M512.587,214.827
			c1.055,0,1.727-0.551,1.727-1.403V213.4c0-0.899-0.647-1.391-1.739-1.391h-2.146v2.818H512.587z"/>
		<path class="st3" d="M517.748,210.666h6.225v1.319h-4.749v2.183h4.21v1.319h-4.21v2.255h4.81v1.319h-6.285V210.666z"/>
		<path class="st3" d="M525.908,210.666h1.476v3.49h4.006v-3.49h1.475v8.396h-1.475v-3.538h-4.006v3.538h-1.476V210.666z"/>
		<path class="st3" d="M534.776,214.887v-0.024c0-2.363,1.822-4.341,4.401-4.341c2.578,0,4.377,1.955,4.377,4.317v0.024
			c0,2.363-1.822,4.342-4.401,4.342C536.575,219.205,534.776,217.25,534.776,214.887z M542.008,214.887v-0.024
			c0-1.631-1.188-2.986-2.854-2.986s-2.83,1.332-2.83,2.962v0.024c0,1.631,1.188,2.975,2.854,2.975S542.008,216.519,542.008,214.887
			z"/>
		<path class="st3" d="M545.336,215.499v-4.833h1.476v4.773c0,1.559,0.804,2.387,2.123,2.387c1.307,0,2.11-0.779,2.11-2.327v-4.833
			h1.476v4.762c0,2.506-1.416,3.766-3.61,3.766C546.728,219.193,545.336,217.934,545.336,215.499z"/>
		<path class="st3" d="M554.108,217.838l0.888-1.056c0.804,0.696,1.619,1.091,2.65,1.091c0.911,0,1.487-0.432,1.487-1.055v-0.024
			c0-0.6-0.336-0.924-1.895-1.283c-1.787-0.432-2.795-0.96-2.795-2.507v-0.024c0-1.439,1.199-2.435,2.866-2.435
			c1.224,0,2.195,0.372,3.047,1.055l-0.792,1.115c-0.756-0.563-1.511-0.863-2.278-0.863c-0.864,0-1.367,0.444-1.367,0.996v0.024
			c0,0.647,0.384,0.936,2.003,1.319c1.774,0.432,2.687,1.067,2.687,2.458v0.024c0,1.571-1.235,2.507-2.999,2.507
			C556.327,219.181,555.116,218.737,554.108,217.838z"/>
		<path class="st3" d="M562.472,210.666h6.225v1.319h-4.749v2.183h4.21v1.319h-4.21v2.255h4.81v1.319h-6.285V210.666z"/>
		<path class="st3" d="M514.695,226.887v-0.024c0-2.363,1.822-4.341,4.401-4.341c2.578,0,4.377,1.955,4.377,4.317v0.024
			c0,2.363-1.822,4.342-4.401,4.342C516.494,231.205,514.695,229.25,514.695,226.887z M521.927,226.887v-0.024
			c0-1.631-1.188-2.986-2.854-2.986s-2.83,1.332-2.83,2.962v0.024c0,1.631,1.188,2.975,2.854,2.975S521.927,228.519,521.927,226.887
			z"/>
		<path class="st3" d="M525.255,227.499v-4.833h1.476v4.773c0,1.559,0.804,2.387,2.123,2.387c1.307,0,2.11-0.779,2.11-2.327v-4.833
			h1.476v4.762c0,2.506-1.415,3.766-3.61,3.766C526.646,231.193,525.255,229.934,525.255,227.499z"/>
		<path class="st3" d="M536.653,224.033h-2.663v-1.367h6.812v1.367h-2.662v7.028h-1.487V224.033z"/>
	</g>
</g>
<g>
	<g>
		<path class="st3" d="M620.811,210.666h3.742c1.056,0,1.883,0.312,2.423,0.84c0.443,0.456,0.695,1.079,0.695,1.811v0.024
			c0,1.379-0.827,2.207-1.991,2.542l2.268,3.178h-1.751l-2.063-2.926h-1.847v2.926h-1.476V210.666z M624.445,214.827
			c1.055,0,1.727-0.551,1.727-1.403V213.4c0-0.899-0.647-1.391-1.739-1.391h-2.146v2.818H624.445z"/>
		<path class="st3" d="M629.606,210.666h6.225v1.319h-4.749v2.183h4.21v1.319h-4.21v2.255h4.81v1.319h-6.285V210.666z"/>
		<path class="st3" d="M639.83,212.033h-2.663v-1.367h6.812v1.367h-2.662v7.028h-1.487V212.033z"/>
		<path class="st3" d="M647.557,210.605h1.367l3.694,8.456h-1.56l-0.852-2.027h-3.97l-0.863,2.027h-1.512L647.557,210.605z
			 M649.668,215.727l-1.451-3.358l-1.439,3.358H649.668z"/>
		<path class="st3" d="M654.267,210.666h1.476v8.396h-1.476V210.666z"/>
		<path class="st3" d="M658.106,210.666h1.476v7.052h4.413v1.343h-5.889V210.666z"/>
		<path class="st3" d="M665.654,210.666h6.225v1.319h-4.749v2.183h4.21v1.319h-4.21v2.255h4.81v1.319h-6.285V210.666z"/>
		<path class="st3" d="M673.814,210.666h3.742c1.056,0,1.883,0.312,2.423,0.84c0.443,0.456,0.695,1.079,0.695,1.811v0.024
			c0,1.379-0.827,2.207-1.991,2.542l2.268,3.178H679.2l-2.063-2.926h-1.847v2.926h-1.476V210.666z M677.449,214.827
			c1.055,0,1.727-0.551,1.727-1.403V213.4c0-0.899-0.647-1.391-1.739-1.391h-2.146v2.818H677.449z"/>
	</g>
</g>
<g>
	<g>
		<path class="st3" d="M356.509,212.033h-2.663v-1.367h6.812v1.367h-2.662v7.028h-1.487V212.033z"/>
		<path class="st3" d="M362.341,210.666h3.742c1.056,0,1.883,0.312,2.423,0.84c0.443,0.456,0.695,1.079,0.695,1.811v0.024
			c0,1.379-0.827,2.207-1.99,2.542l2.267,3.178h-1.751l-2.063-2.926h-1.847v2.926h-1.476V210.666z M365.976,214.827
			c1.055,0,1.727-0.551,1.727-1.403V213.4c0-0.899-0.647-1.391-1.739-1.391h-2.146v2.818H365.976z"/>
		<path class="st3" d="M374.111,210.605h1.367l3.694,8.456h-1.56l-0.852-2.027h-3.97l-0.863,2.027h-1.512L374.111,210.605z
			 M376.223,215.727l-1.451-3.358l-1.439,3.358H376.223z"/>
		<path class="st3" d="M380.737,210.666h1.367l4.498,5.805v-5.805h1.451v8.396h-1.235l-4.63-5.973v5.973h-1.451V210.666z"/>
		<path class="st3" d="M389.773,217.838l0.888-1.056c0.804,0.696,1.619,1.091,2.65,1.091c0.911,0,1.487-0.432,1.487-1.055v-0.024
			c0-0.6-0.336-0.924-1.895-1.283c-1.787-0.432-2.795-0.96-2.795-2.507v-0.024c0-1.439,1.199-2.435,2.866-2.435
			c1.224,0,2.195,0.372,3.047,1.055l-0.792,1.115c-0.756-0.563-1.511-0.863-2.278-0.863c-0.864,0-1.367,0.444-1.367,0.996v0.024
			c0,0.647,0.384,0.936,2.003,1.319c1.774,0.432,2.687,1.067,2.687,2.458v0.024c0,1.571-1.235,2.507-2.999,2.507
			C391.992,219.181,390.781,218.737,389.773,217.838z"/>
		<path class="st3" d="M398.137,210.666h3.311c1.967,0,3.19,1.116,3.19,2.807v0.024c0,1.883-1.512,2.866-3.358,2.866h-1.667v2.699
			h-1.476V210.666z M401.327,215.031c1.115,0,1.812-0.624,1.812-1.499v-0.024c0-0.984-0.708-1.5-1.812-1.5h-1.715v3.022H401.327z"/>
		<path class="st3" d="M405.902,214.887v-0.024c0-2.363,1.822-4.341,4.401-4.341c2.578,0,4.377,1.955,4.377,4.317v0.024
			c0,2.363-1.822,4.342-4.401,4.342C407.701,219.205,405.902,217.25,405.902,214.887z M413.134,214.887v-0.024
			c0-1.631-1.188-2.986-2.854-2.986s-2.83,1.332-2.83,2.962v0.024c0,1.631,1.188,2.975,2.854,2.975S413.134,216.519,413.134,214.887
			z"/>
		<path class="st3" d="M416.593,210.666h3.742c1.056,0,1.883,0.312,2.423,0.84c0.443,0.456,0.695,1.079,0.695,1.811v0.024
			c0,1.379-0.827,2.207-1.99,2.542l2.267,3.178h-1.751l-2.063-2.926h-1.847v2.926h-1.476V210.666z M420.228,214.827
			c1.055,0,1.727-0.551,1.727-1.403V213.4c0-0.899-0.647-1.391-1.739-1.391h-2.146v2.818H420.228z"/>
		<path class="st3" d="M427.416,212.033h-2.663v-1.367h6.812v1.367h-2.662v7.028h-1.487V212.033z"/>
		<path class="st3" d="M435.144,210.605h1.367l3.694,8.456h-1.56l-0.852-2.027h-3.97l-0.863,2.027h-1.512L435.144,210.605z
			 M437.255,215.727l-1.451-3.358l-1.439,3.358H437.255z"/>
		<path class="st3" d="M442.752,212.033h-2.663v-1.367h6.812v1.367h-2.662v7.028h-1.487V212.033z"/>
		<path class="st3" d="M448.669,210.666h1.476v8.396h-1.476V210.666z"/>
		<path class="st3" d="M452.138,214.887v-0.024c0-2.363,1.822-4.341,4.401-4.341c2.578,0,4.377,1.955,4.377,4.317v0.024
			c0,2.363-1.822,4.342-4.401,4.342C453.937,219.205,452.138,217.25,452.138,214.887z M459.369,214.887v-0.024
			c0-1.631-1.188-2.986-2.854-2.986s-2.83,1.332-2.83,2.962v0.024c0,1.631,1.188,2.975,2.854,2.975S459.369,216.519,459.369,214.887
			z"/>
		<path class="st3" d="M462.828,210.666h1.367l4.498,5.805v-5.805h1.451v8.396h-1.235l-4.63-5.973v5.973h-1.451V210.666z"/>
	</g>
</g>
<g>
	<g>
		<path class="st3" d="M731.563,214.887v-0.024c0-2.387,1.786-4.341,4.329-4.341c1.547,0,2.482,0.54,3.286,1.307l-0.947,1.091
			c-0.672-0.624-1.392-1.043-2.351-1.043c-1.596,0-2.771,1.319-2.771,2.962v0.024c0,1.643,1.163,2.975,2.771,2.975
			c1.031,0,1.691-0.408,2.41-1.08l0.948,0.959c-0.876,0.912-1.835,1.487-3.406,1.487
			C733.386,219.205,731.563,217.298,731.563,214.887z"/>
		<path class="st3" d="M740.778,215.499v-4.833h1.476v4.773c0,1.559,0.804,2.387,2.123,2.387c1.307,0,2.11-0.779,2.11-2.327v-4.833
			h1.476v4.762c0,2.506-1.416,3.766-3.61,3.766C742.17,219.193,740.778,217.934,740.778,215.499z"/>
		<path class="st3" d="M749.551,217.838l0.888-1.056c0.804,0.696,1.619,1.091,2.65,1.091c0.911,0,1.487-0.432,1.487-1.055v-0.024
			c0-0.6-0.336-0.924-1.895-1.283c-1.787-0.432-2.795-0.96-2.795-2.507v-0.024c0-1.439,1.199-2.435,2.866-2.435
			c1.224,0,2.195,0.372,3.047,1.055l-0.792,1.115c-0.756-0.563-1.511-0.863-2.278-0.863c-0.864,0-1.367,0.444-1.367,0.996v0.024
			c0,0.647,0.384,0.936,2.003,1.319c1.774,0.432,2.687,1.067,2.687,2.458v0.024c0,1.571-1.235,2.507-2.999,2.507
			C751.77,219.181,750.559,218.737,749.551,217.838z"/>
		<path class="st3" d="M759.798,212.033h-2.663v-1.367h6.812v1.367h-2.662v7.028h-1.487V212.033z"/>
		<path class="st3" d="M764.804,214.887v-0.024c0-2.363,1.822-4.341,4.401-4.341c2.578,0,4.377,1.955,4.377,4.317v0.024
			c0,2.363-1.822,4.342-4.401,4.342C766.603,219.205,764.804,217.25,764.804,214.887z M772.035,214.887v-0.024
			c0-1.631-1.188-2.986-2.854-2.986s-2.83,1.332-2.83,2.962v0.024c0,1.631,1.188,2.975,2.854,2.975S772.035,216.519,772.035,214.887
			z"/>
		<path class="st3" d="M775.494,210.666h1.571l2.555,3.97l2.555-3.97h1.571v8.396h-1.476v-6.021l-2.65,3.958h-0.048l-2.627-3.934
			v5.997h-1.451V210.666z"/>
		<path class="st3" d="M786.03,210.666h6.225v1.319h-4.749v2.183h4.21v1.319h-4.21v2.255h4.81v1.319h-6.285V210.666z"/>
		<path class="st3" d="M794.19,210.666h3.742c1.056,0,1.883,0.312,2.423,0.84c0.443,0.456,0.695,1.079,0.695,1.811v0.024
			c0,1.379-0.827,2.207-1.99,2.542l2.267,3.178h-1.751l-2.063-2.926h-1.847v2.926h-1.476V210.666z M797.825,214.827
			c1.055,0,1.727-0.551,1.727-1.403V213.4c0-0.899-0.647-1.391-1.739-1.391h-2.146v2.818H797.825z"/>
	</g>
</g>
<g>
	<rect x="403.826" y="169.764" class="st3" width="14.137" height="1.8"/>
	<path class="st3" d="M395.835,171.597h-6.577c-0.497,0-0.9-0.403-0.9-0.9v-7.804c0-0.497,0.403-0.9,0.9-0.9h28.23v1.8h-27.331
		v6.004h5.677V171.597z"/>
	<path class="st3" d="M413.872,140.408v18.989h-23.524v-18.989H413.872 M414.84,138.608H389.38c-0.459,0-0.832,0.372-0.832,0.832
		v20.925c0,0.459,0.372,0.832,0.832,0.832h25.461c0.459,0,0.832-0.372,0.832-0.832v-20.925
		C415.672,138.98,415.3,138.608,414.84,138.608L414.84,138.608z"/>
	<path class="st3" d="M437.572,171.568h-6.199v-1.8h5.299v-10.826l-4.447-11.17h-13.446v21.996h4.129v1.8h-5.029
		c-0.497,0-0.9-0.403-0.9-0.9v-23.796c0-0.497,0.403-0.9,0.9-0.9h14.957c0.368,0,0.7,0.225,0.836,0.567l4.737,11.898
		c0.042,0.106,0.064,0.219,0.064,0.333v11.898C438.473,171.166,438.069,171.568,437.572,171.568z"/>
	<path class="st3" d="M399.473,167.116c1.73,0,3.138,1.408,3.138,3.138s-1.408,3.138-3.138,3.138s-3.138-1.408-3.138-3.138
		S397.743,167.116,399.473,167.116 M399.473,165.316c-2.727,0-4.938,2.211-4.938,4.938c0,2.727,2.211,4.938,4.938,4.938
		s4.938-2.211,4.938-4.938C404.411,167.527,402.2,165.316,399.473,165.316L399.473,165.316z"/>
	<path class="st3" d="M427.079,167.116c1.73,0,3.138,1.408,3.138,3.138s-1.408,3.138-3.138,3.138s-3.138-1.408-3.138-3.138
		S425.349,167.116,427.079,167.116 M427.079,165.316c-2.727,0-4.938,2.211-4.938,4.938c0,2.727,2.211,4.938,4.938,4.938
		s4.938-2.211,4.938-4.938C432.017,167.527,429.806,165.316,427.079,165.316L427.079,165.316z"/>
	<path class="st3" d="M431.961,159.67h-9.764c-0.497,0-0.9-0.403-0.9-0.9v-8.315c0-0.497,0.403-0.9,0.9-0.9h6.353
		c0.365,0,0.694,0.221,0.833,0.558l3.411,8.315c0.113,0.278,0.082,0.594-0.086,0.843C432.541,159.521,432.261,159.67,431.961,159.67
		z M423.098,157.871h7.521l-2.673-6.516h-4.849V157.871z"/>
</g>
<g>
	<g>
		<path class="st3" d="M181.064,171.063h-5.676c-0.497,0-0.9-0.403-0.9-0.9v-5.488c0-0.497,0.403-0.9,0.9-0.9h5.676
			c0.497,0,0.9,0.403,0.9,0.9v5.488C181.964,170.661,181.561,171.063,181.064,171.063z M176.288,169.264h3.876v-3.688h-3.876
			V169.264z"/>
		<path class="st3" d="M170.771,171.063h-5.676c-0.497,0-0.9-0.403-0.9-0.9v-5.488c0-0.497,0.403-0.9,0.9-0.9h5.676
			c0.497,0,0.9,0.403,0.9,0.9v5.488C171.671,170.661,171.269,171.063,170.771,171.063z M165.996,169.264h3.876v-3.688h-3.876
			V169.264z"/>
		<path class="st3" d="M191.898,171.063h-5.676c-0.497,0-0.9-0.403-0.9-0.9v-5.488c0-0.497,0.403-0.9,0.9-0.9h5.676
			c0.497,0,0.9,0.403,0.9,0.9v5.488C192.798,170.661,192.395,171.063,191.898,171.063z M187.122,169.264h3.876v-3.688h-3.876
			V169.264z"/>
		<path class="st3" d="M159.428,141.767v31.626h-6.416v-31.626H159.428 M161.228,139.967h-10.016v35.226h10.016V139.967
			L161.228,139.967z"/>
		<path class="st3" d="M195.909,175.363h-35.348c-0.497,0-0.9-0.403-0.9-0.9v-14.024c0-0.333,0.183-0.638,0.477-0.794l9.916-5.28
			c0.279-0.148,0.615-0.14,0.886,0.023c0.271,0.163,0.437,0.456,0.437,0.771v4.38h24.532c0.497,0,0.9,0.403,0.9,0.9v14.024
			C196.809,174.96,196.406,175.363,195.909,175.363z M161.461,173.563h33.548v-12.224h-24.532c-0.497,0-0.9-0.403-0.9-0.9v-3.781
			l-8.116,4.321V173.563z"/>
		<g>
			<path class="st3" d="M190.893,146.152l1.203,13.17h-6.072l1.203-13.17H190.893 M192.536,144.352h-6.951l-1.532,16.77h10.016
				L192.536,144.352L192.536,144.352z"/>
			<path class="st3" d="M180.059,146.152l1.203,13.17h-6.072l1.203-13.17H180.059 M181.702,144.352h-6.951l-1.532,16.77h10.016
				L181.702,144.352L181.702,144.352z"/>
			<rect x="174.496" y="154.361" class="st3" width="7.066" height="1.8"/>
			<rect x="174.727" y="149.377" class="st3" width="6.999" height="1.8"/>
			<rect x="185.341" y="154.361" class="st3" width="7.055" height="1.8"/>
			<rect x="185.561" y="149.377" class="st3" width="6.999" height="1.8"/>
		</g>
	</g>
	<g>
		<path class="st3" d="M176.045,138.371c-0.218,0-0.438-0.071-0.622-0.217c-0.432-0.344-0.504-0.973-0.16-1.405
			c2.048-2.575,5.107-4.051,8.394-4.051c2.99,0,5.871,1.272,7.902,3.491c0.373,0.407,0.345,1.04-0.062,1.413
			c-0.408,0.373-1.042,0.344-1.413-0.062c-1.653-1.806-3.996-2.842-6.426-2.842c-2.673,0-5.162,1.202-6.828,3.296
			C176.631,138.242,176.339,138.371,176.045,138.371z"/>
		<path class="st3" d="M171.083,136.587c-0.192,0-0.387-0.056-0.559-0.171c-0.458-0.309-0.578-0.931-0.269-1.388
			c2.979-4.41,7.931-7.043,13.246-7.043c5.21,0,10.107,2.56,13.1,6.847c0.316,0.453,0.206,1.076-0.248,1.392
			c-0.453,0.318-1.076,0.205-1.392-0.248c-2.619-3.751-6.903-5.991-11.46-5.991c-4.65,0-8.982,2.304-11.589,6.162
			C171.72,136.433,171.405,136.587,171.083,136.587z"/>
	</g>
</g>
<g>
	<path class="st3" d="M311.852,176.093h-40.851c-0.497,0-0.9-0.403-0.9-0.9v-29.015c0-0.313,0.163-0.604,0.431-0.768l20.425-12.474
		c0.288-0.176,0.65-0.176,0.938,0l20.426,12.474c0.268,0.164,0.431,0.455,0.431,0.768v29.015
		C312.752,175.69,312.349,176.093,311.852,176.093z M271.901,174.293h39.051v-27.61l-19.526-11.924l-19.525,11.924V174.293z"/>
	<path class="st3" d="M307.057,175.193h-1.8v-19.844h-27.661v19.844h-1.8v-20.744c0-0.497,0.403-0.9,0.9-0.9h29.46
		c0.497,0,0.9,0.403,0.9,0.9V175.193z"/>
	<rect x="276.823" y="169.236" class="st3" width="29.208" height="1.8"/>
	<rect x="276.823" y="163.869" class="st3" width="29.208" height="1.8"/>
	<rect x="276.823" y="158.502" class="st3" width="29.208" height="1.8"/>
	<path class="st3" d="M283.186,148.304v2.117h-5.301v-2.117H283.186 M284.986,146.504h-8.901v5.717h8.901V146.504L284.986,146.504z"
		/>
	<path class="st3" d="M294.049,148.304v2.117h-5.301v-2.117H294.049 M295.849,146.504h-8.901v5.717h8.901V146.504L295.849,146.504z"
		/>
	<path class="st3" d="M304.911,148.304v2.117h-5.301v-2.117H304.911 M306.711,146.504h-8.901v5.717h8.901V146.504L306.711,146.504z"
		/>
</g>
<g>
	<path class="st3" d="M546.268,176.093h-40.851c-0.497,0-0.9-0.403-0.9-0.9v-29.015c0-0.313,0.164-0.604,0.432-0.768l20.426-12.474
		c0.287-0.176,0.65-0.176,0.938,0l20.425,12.474c0.268,0.164,0.432,0.455,0.432,0.768v29.015
		C547.168,175.69,546.765,176.093,546.268,176.093z M506.317,174.293h39.05v-27.61l-19.524-11.924l-19.525,11.924V174.293z"/>
	<path class="st3" d="M541.473,175.193h-1.801v-19.844h-27.659v19.844h-1.801v-20.744c0-0.497,0.403-0.9,0.9-0.9h29.46
		c0.497,0,0.9,0.403,0.9,0.9V175.193z"/>
	<rect x="511.239" y="169.236" class="st3" width="29.207" height="1.8"/>
	<rect x="511.239" y="163.869" class="st3" width="29.207" height="1.8"/>
	<rect x="511.239" y="158.502" class="st3" width="29.207" height="1.8"/>
	<path class="st3" d="M517.602,148.304v2.117h-5.301v-2.117H517.602 M519.402,146.504h-8.901v5.717h8.901V146.504L519.402,146.504z"
		/>
	<path class="st3" d="M528.464,148.304v2.117h-5.301v-2.117H528.464 M530.264,146.504h-8.901v5.717h8.901V146.504L530.264,146.504z"
		/>
	<path class="st3" d="M539.327,148.304v2.117h-5.301v-2.117H539.327 M541.127,146.504h-8.901v5.717h8.901V146.504L541.127,146.504z"
		/>
</g>
<g>
	<path class="st3" d="M82.321,177.661H32.895c-0.497,0-0.9-0.403-0.9-0.9v-4.192c0-0.497,0.403-0.9,0.9-0.9h49.426
		c0.497,0,0.9,0.403,0.9,0.9v4.192C83.221,177.258,82.818,177.661,82.321,177.661z M33.795,175.861h47.626v-2.392H33.795V175.861z"
		/>
	<g>
		<path class="st3" d="M48.756,136.91h-11.69c-0.497,0-0.9-0.403-0.9-0.9v-3.309c0-0.497,0.403-0.9,0.9-0.9h11.69
			c0.497,0,0.9,0.403,0.9,0.9v3.309C49.656,136.507,49.253,136.91,48.756,136.91z M37.966,135.11h9.89v-1.509h-9.89V135.11z"/>
	</g>
	<path class="st3" d="M42.912,169.204c-2.548,0-4.621-2.073-4.621-4.621v-28.417c0-0.497,0.403-0.9,0.9-0.9h7.441
		c0.497,0,0.9,0.403,0.9,0.9v28.417C47.532,167.131,45.459,169.204,42.912,169.204z M40.091,137.066v27.517
		c0,1.555,1.266,2.821,2.821,2.821s2.82-1.266,2.82-2.821v-27.517H40.091z"/>
	<g>
		<path class="st3" d="M63.768,136.91h-11.69c-0.497,0-0.9-0.403-0.9-0.9v-3.309c0-0.497,0.403-0.9,0.9-0.9h11.69
			c0.497,0,0.9,0.403,0.9,0.9v3.309C64.668,136.507,64.265,136.91,63.768,136.91z M52.978,135.11h9.891v-1.509h-9.891V135.11z"/>
	</g>
	<path class="st3" d="M57.923,169.204c-2.548,0-4.621-2.073-4.621-4.621v-28.417c0-0.497,0.403-0.9,0.9-0.9h7.441
		c0.497,0,0.9,0.403,0.9,0.9v28.417C62.543,167.131,60.471,169.204,57.923,169.204z M55.102,137.066v27.517
		c0,1.555,1.266,2.821,2.821,2.821s2.821-1.266,2.821-2.821v-27.517H55.102z"/>
	<g>
		<path class="st3" d="M78.243,136.91h-11.69c-0.497,0-0.9-0.403-0.9-0.9v-3.309c0-0.497,0.403-0.9,0.9-0.9h11.69
			c0.497,0,0.9,0.403,0.9,0.9v3.309C79.143,136.507,78.74,136.91,78.243,136.91z M67.453,135.11h9.89v-1.509h-9.89V135.11z"/>
	</g>
	<path class="st3" d="M72.398,169.204c-2.547,0-4.62-2.073-4.62-4.621v-28.417c0-0.497,0.403-0.9,0.9-0.9h7.441
		c0.497,0,0.9,0.403,0.9,0.9v28.417C77.019,167.131,74.946,169.204,72.398,169.204z M69.578,137.066v27.517
		c0,1.555,1.265,2.821,2.82,2.821s2.821-1.266,2.821-2.821v-27.517H69.578z"/>
	<path class="st3" d="M36.491,173.003h-1.8V145.25c0-0.497,0.403-0.9,0.9-0.9h3.386v1.8h-2.486V173.003z"/>
	<rect x="46.641" y="144.35" class="st3" width="7.665" height="1.8"/>
	<rect x="61.689" y="144.35" class="st3" width="6.917" height="1.8"/>
	<rect x="76.177" y="144.35" class="st3" width="3.21" height="1.8"/>
	<rect x="39.264" y="149.963" class="st3" width="6.86" height="1.8"/>
	<rect x="57.974" y="149.963" class="st3" width="3.534" height="1.8"/>
	<rect x="69.2" y="149.963" class="st3" width="7.068" height="1.8"/>
	<rect x="54.44" y="156.407" class="st3" width="6.86" height="1.8"/>
	<rect x="72.734" y="156.407" class="st3" width="3.119" height="1.8"/>
</g>
<g>
	<path class="st3" d="M763.697,129.561c0.961,0,1.742,0.781,1.742,1.742v3.042c0,0.961-0.781,1.742-1.742,1.742h-1.002
		c-0.961,0-1.742-0.781-1.742-1.742v-3.042c0-0.961,0.781-1.742,1.742-1.742H763.697 M763.697,127.561h-1.002
		c-2.058,0-3.742,1.684-3.742,3.742v3.042c0,2.058,1.684,3.742,3.742,3.742h1.002c2.058,0,3.742-1.684,3.742-3.742v-3.042
		C767.439,129.245,765.755,127.561,763.697,127.561L763.697,127.561z"/>
	<path class="st3" d="M763.195,141.332c1.845,0,3.56,0.783,4.828,2.205c1.481,1.661,2.179,3.941,1.913,6.255l-0.774,6.75
		c-0.281,2.452-0.709,3.505-1.696,4.171c-0.551,0.372-0.881,0.993-0.881,1.658v10.822h-2.264c-0.328-0.226-0.722-0.352-1.133-0.352
		c-0.411,0-0.805,0.126-1.134,0.352h-2.25v-10.822c0-0.665-0.33-1.286-0.881-1.658c-0.987-0.666-1.415-1.719-1.696-4.171
		l-0.774-6.75c-0.266-2.314,0.432-4.594,1.913-6.255C759.635,142.115,761.35,141.332,763.195,141.332 M763.195,139.332
		L763.195,139.332c-5.475,0-9.363,5.159-8.729,10.688l0.774,6.75c0.271,2.362,0.715,4.352,2.564,5.601v11.01
		c0,0.983,0.805,1.812,1.788,1.812c0,0,1.585,0,2.529,0c0.401,0,0.912-0.103,1.066-0.352c0.142,0.23,0.538,0.352,1.105,0.352
		c1.04,0,2.504,0,2.504,0c0.983,0,1.788-0.829,1.788-1.812v-11.01c1.849-1.248,2.293-3.239,2.564-5.601l0.774-6.75
		C772.558,144.491,768.67,139.332,763.195,139.332L763.195,139.332z"/>
	<path class="st3" d="M763.208,174.851c-0.553,0-1-0.448-1-1v-7.71c0-0.552,0.447-1,1-1s1,0.448,1,1v7.71
		C764.208,174.403,763.761,174.851,763.208,174.851z"/>
</g>
<g>
	<g>
		<path class="st3" d="M637.318,142.525h-4.616c-0.553,0-1-0.448-1-1v-4.616c0-0.552,0.447-1,1-1h4.616c0.553,0,1,0.448,1,1v4.616
			C638.318,142.078,637.871,142.525,637.318,142.525z M633.702,140.525h2.616v-2.616h-2.616V140.525z"/>
		<path class="st3" d="M646.782,142.525h-4.617c-0.553,0-1-0.448-1-1v-4.616c0-0.552,0.447-1,1-1h4.617c0.553,0,1,0.448,1,1v4.616
			C647.782,142.078,647.335,142.525,646.782,142.525z M643.165,140.525h2.617v-2.616h-2.617V140.525z"/>
		<path class="st3" d="M656.245,142.525h-4.616c-0.553,0-1-0.448-1-1v-4.616c0-0.552,0.447-1,1-1h4.616c0.553,0,1,0.448,1,1v4.616
			C657.245,142.078,656.798,142.525,656.245,142.525z M652.629,140.525h2.616v-2.616h-2.616V140.525z"/>
	</g>
	<g>
		<path class="st3" d="M637.318,150.853h-4.616c-0.553,0-1-0.448-1-1v-4.617c0-0.552,0.447-1,1-1h4.616c0.553,0,1,0.448,1,1v4.617
			C638.318,150.405,637.871,150.853,637.318,150.853z M633.702,148.853h2.616v-2.617h-2.616V148.853z"/>
		<path class="st3" d="M646.782,150.853h-4.617c-0.553,0-1-0.448-1-1v-4.617c0-0.552,0.447-1,1-1h4.617c0.553,0,1,0.448,1,1v4.617
			C647.782,150.405,647.335,150.853,646.782,150.853z M643.165,148.853h2.617v-2.617h-2.617V148.853z"/>
		<path class="st3" d="M656.245,150.853h-4.616c-0.553,0-1-0.448-1-1v-4.617c0-0.552,0.447-1,1-1h4.616c0.553,0,1,0.448,1,1v4.617
			C657.245,150.405,656.798,150.853,656.245,150.853z M652.629,148.853h2.616v-2.617h-2.616V148.853z"/>
	</g>
	<g>
		<path class="st3" d="M637.318,159.18h-4.616c-0.553,0-1-0.448-1-1v-4.617c0-0.552,0.447-1,1-1h4.616c0.553,0,1,0.448,1,1v4.617
			C638.318,158.732,637.871,159.18,637.318,159.18z M633.702,157.18h2.616v-2.617h-2.616V157.18z"/>
		<path class="st3" d="M646.782,159.18h-4.617c-0.553,0-1-0.448-1-1v-4.617c0-0.552,0.447-1,1-1h4.617c0.553,0,1,0.448,1,1v4.617
			C647.782,158.732,647.335,159.18,646.782,159.18z M643.165,157.18h2.617v-2.617h-2.617V157.18z"/>
		<path class="st3" d="M656.245,159.18h-4.616c-0.553,0-1-0.448-1-1v-4.617c0-0.552,0.447-1,1-1h4.616c0.553,0,1,0.448,1,1v4.617
			C657.245,158.732,656.798,159.18,656.245,159.18z M652.629,157.18h2.616v-2.617h-2.616V157.18z"/>
	</g>
	<rect x="622.78" y="175.024" class="st3" width="43.387" height="2"/>
	<path class="st3" d="M661.018,177.024H627.93c-0.553,0-1-0.448-1-1v-43.491c0-0.552,0.447-1,1-1h33.088c0.553,0,1,0.448,1,1v43.491
		C662.018,176.577,661.57,177.024,661.018,177.024z M628.93,175.024h31.088v-41.491H628.93V175.024z"/>
	<path class="st3" d="M651.578,176.808h-14.209c-0.553,0-1-0.448-1-1v-13.35c0-0.552,0.447-1,1-1h14.209c0.553,0,1,0.448,1,1v13.35
		C652.578,176.36,652.131,176.808,651.578,176.808z M638.369,174.808h12.209v-11.35h-12.209V174.808z"/>
	<rect x="643.474" y="162.54" class="st3" width="2" height="13.485"/>
	<rect x="640.984" y="168.335" class="st3" width="2" height="1.71"/>
	<rect x="645.782" y="168.335" class="st3" width="2" height="1.71"/>
</g>
<path class="st3" d="M133.245,85.354H95.664c-0.552,0-1-0.448-1-1s0.448-1,1-1h37.582c0.552,0,1,0.448,1,1
	S133.797,85.354,133.245,85.354z"/>
<g>
	<path class="st3" d="M109.359,89.124h-8.638c-0.452,0-0.818-0.366-0.818-0.818v-8.638c0-0.452,0.366-0.818,0.818-0.818h8.638
		c0.452,0,0.818,0.366,0.818,0.818v8.638C110.176,88.758,109.81,89.124,109.359,89.124z"/>
</g>
<g>
	<path class="st3" d="M126.007,89.124h-8.638c-0.452,0-0.818-0.366-0.818-0.818v-8.638c0-0.452,0.366-0.818,0.818-0.818h8.638
		c0.452,0,0.818,0.366,0.818,0.818v8.638C126.825,88.758,126.459,89.124,126.007,89.124z"/>
</g>
<g>
	<polygon class="st2" points="132.057,96.543 127.702,96.543 127.702,94.543 130.057,94.543 130.057,92.188 132.057,92.188 	"/>
	<rect x="119.036" y="94.543" class="st2" width="5.826" height="2"/>
	<polygon class="st2" points="116.195,96.543 111.84,96.543 111.84,92.188 113.84,92.188 113.84,94.543 116.195,94.543 	"/>
	<rect x="111.84" y="79.209" class="st2" width="2" height="8.725"/>
	<polygon class="st2" points="113.84,74.956 111.84,74.956 111.84,70.6 116.195,70.6 116.195,72.6 113.84,72.6 	"/>
	<rect x="119.036" y="70.6" class="st2" width="5.826" height="2"/>
	<polygon class="st2" points="132.057,74.956 130.057,74.956 130.057,72.6 127.702,72.6 127.702,70.6 132.057,70.6 	"/>
	<rect x="130.057" y="79.209" class="st2" width="2" height="8.725"/>
</g>
<path class="st3" d="M247.899,85.354h-54.017c-0.552,0-1-0.448-1-1s0.448-1,1-1h54.017c0.552,0,1,0.448,1,1
	S248.452,85.354,247.899,85.354z"/>
<g>
	<path class="st3" d="M224.013,89.124h-8.638c-0.452,0-0.818-0.366-0.818-0.818v-8.638c0-0.452,0.366-0.818,0.818-0.818h8.638
		c0.452,0,0.818,0.366,0.818,0.818v8.638C224.831,88.758,224.465,89.124,224.013,89.124z"/>
</g>
<g>
	<path class="st3" d="M207.874,89.124h-8.638c-0.452,0-0.818-0.366-0.818-0.818v-8.638c0-0.452,0.366-0.818,0.818-0.818h8.638
		c0.452,0,0.818,0.366,0.818,0.818v8.638C208.692,88.758,208.326,89.124,207.874,89.124z"/>
</g>
<g>
	<path class="st3" d="M240.662,89.124h-8.638c-0.452,0-0.818-0.366-0.818-0.818v-8.638c0-0.452,0.366-0.818,0.818-0.818h8.638
		c0.452,0,0.818,0.366,0.818,0.818v8.638C241.479,88.758,241.113,89.124,240.662,89.124z"/>
</g>
<g>
	<rect x="360.067" y="71.6" class="st1" width="18.217" height="23.943"/>
	<g>
		<polygon class="st2" points="379.285,96.543 374.93,96.543 374.93,94.543 377.285,94.543 377.285,92.188 379.285,92.188 		"/>
		<rect x="366.263" y="94.543" class="st2" width="5.826" height="2"/>
		<polygon class="st2" points="363.422,96.543 359.067,96.543 359.067,92.188 361.067,92.188 361.067,94.543 363.422,94.543 		"/>
		<rect x="359.067" y="79.209" class="st2" width="2" height="8.725"/>
		<polygon class="st2" points="361.067,74.956 359.067,74.956 359.067,70.6 363.422,70.6 363.422,72.6 361.067,72.6 		"/>
		<rect x="366.263" y="70.6" class="st2" width="5.826" height="2"/>
		<polygon class="st2" points="379.285,74.956 377.285,74.956 377.285,72.6 374.93,72.6 374.93,70.6 379.285,70.6 		"/>
		<rect x="377.285" y="79.209" class="st2" width="2" height="8.725"/>
	</g>
</g>
<path class="st3" d="M380.473,85.354h-69.669c-0.552,0-1-0.448-1-1s0.448-1,1-1h69.669c0.552,0,1,0.448,1,1
	S381.025,85.354,380.473,85.354z"/>
<g>
	<path class="st3" d="M356.586,89.124h-8.638c-0.452,0-0.818-0.366-0.818-0.818v-8.638c0-0.452,0.366-0.818,0.818-0.818h8.638
		c0.452,0,0.818,0.366,0.818,0.818v8.638C357.404,88.758,357.038,89.124,356.586,89.124z"/>
</g>
<g>
	<path class="st3" d="M340.447,89.124h-8.638c-0.452,0-0.818-0.366-0.818-0.818v-8.638c0-0.452,0.366-0.818,0.818-0.818h8.638
		c0.452,0,0.818,0.366,0.818,0.818v8.638C341.265,88.758,340.899,89.124,340.447,89.124z"/>
</g>
<g>
	<path class="st3" d="M324.311,89.124h-8.638c-0.452,0-0.818-0.366-0.818-0.818v-8.638c0-0.452,0.366-0.818,0.818-0.818h8.638
		c0.452,0,0.818,0.366,0.818,0.818v8.638C325.129,88.758,324.763,89.124,324.311,89.124z"/>
</g>
<g>
	<path class="st3" d="M373.235,89.124h-8.638c-0.452,0-0.818-0.366-0.818-0.818v-8.638c0-0.452,0.366-0.818,0.818-0.818h8.638
		c0.452,0,0.818,0.366,0.818,0.818v8.638C374.053,88.758,373.686,89.124,373.235,89.124z"/>
</g>
<g>
	<rect x="484.216" y="71.6" class="st1" width="18.217" height="23.943"/>
	<g>
		<polygon class="st2" points="503.434,96.543 499.078,96.543 499.078,94.543 501.434,94.543 501.434,92.188 503.434,92.188 		"/>
		<rect x="490.411" y="94.543" class="st2" width="5.826" height="2"/>
		<polygon class="st2" points="487.571,96.543 483.216,96.543 483.216,92.188 485.216,92.188 485.216,94.543 487.571,94.543 		"/>
		<rect x="483.216" y="79.209" class="st2" width="2" height="8.725"/>
		<polygon class="st2" points="485.216,74.956 483.216,74.956 483.216,70.6 487.571,70.6 487.571,72.6 485.216,72.6 		"/>
		<rect x="490.411" y="70.6" class="st2" width="5.826" height="2"/>
		<polygon class="st2" points="503.434,74.956 501.434,74.956 501.434,72.6 499.078,72.6 499.078,70.6 503.434,70.6 		"/>
		<rect x="501.434" y="79.209" class="st2" width="2" height="8.725"/>
	</g>
</g>
<path class="st3" d="M504.621,85.354h-86.104c-0.553,0-1-0.448-1-1s0.447-1,1-1h86.104c0.553,0,1,0.448,1,1
	S505.174,85.354,504.621,85.354z"/>
<g>
	<path class="st3" d="M480.735,89.124h-8.638c-0.452,0-0.818-0.366-0.818-0.818v-8.638c0-0.452,0.366-0.818,0.818-0.818h8.638
		c0.452,0,0.818,0.366,0.818,0.818v8.638C481.553,88.758,481.186,89.124,480.735,89.124z"/>
</g>
<g>
	<path class="st3" d="M464.596,89.124h-8.638c-0.452,0-0.818-0.366-0.818-0.818v-8.638c0-0.452,0.366-0.818,0.818-0.818h8.638
		c0.452,0,0.818,0.366,0.818,0.818v8.638C465.413,88.758,465.047,89.124,464.596,89.124z"/>
</g>
<g>
	<path class="st3" d="M448.46,89.124h-8.638c-0.452,0-0.818-0.366-0.818-0.818v-8.638c0-0.452,0.366-0.818,0.818-0.818h8.638
		c0.452,0,0.818,0.366,0.818,0.818v8.638C449.278,88.758,448.912,89.124,448.46,89.124z"/>
</g>
<g>
	<path class="st3" d="M432.325,89.124h-8.638c-0.452,0-0.818-0.366-0.818-0.818v-8.638c0-0.452,0.366-0.818,0.818-0.818h8.638
		c0.452,0,0.818,0.366,0.818,0.818v8.638C433.142,88.758,432.776,89.124,432.325,89.124z"/>
</g>
<g>
	<path class="st3" d="M497.383,89.124h-8.638c-0.452,0-0.818-0.366-0.818-0.818v-8.638c0-0.452,0.366-0.818,0.818-0.818h8.638
		c0.452,0,0.818,0.366,0.818,0.818v8.638C498.201,88.758,497.835,89.124,497.383,89.124z"/>
</g>
<g>
	<rect x="637.287" y="71.6" class="st1" width="18.217" height="23.943"/>
	<g>
		<polygon class="st2" points="656.504,96.543 652.149,96.543 652.149,94.543 654.504,94.543 654.504,92.188 656.504,92.188 		"/>
		<rect x="643.482" y="94.543" class="st2" width="5.826" height="2"/>
		<polygon class="st2" points="640.642,96.543 636.287,96.543 636.287,92.188 638.287,92.188 638.287,94.543 640.642,94.543 		"/>
		<rect x="636.287" y="79.209" class="st2" width="2" height="8.725"/>
		<polygon class="st2" points="638.287,74.956 636.287,74.956 636.287,70.6 640.642,70.6 640.642,72.6 638.287,72.6 		"/>
		<rect x="643.482" y="70.6" class="st2" width="5.826" height="2"/>
		<polygon class="st2" points="656.504,74.956 654.504,74.956 654.504,72.6 652.149,72.6 652.149,70.6 656.504,70.6 		"/>
		<rect x="654.504" y="79.209" class="st2" width="2" height="8.725"/>
	</g>
</g>
<path class="st3" d="M657.692,85.354H554.589c-0.553,0-1-0.448-1-1s0.447-1,1-1h103.104c0.553,0,1,0.448,1,1
	S658.245,85.354,657.692,85.354z"/>
<g>
	<path class="st3" d="M633.805,89.124h-8.638c-0.452,0-0.818-0.366-0.818-0.818v-8.638c0-0.452,0.366-0.818,0.818-0.818h8.638
		c0.452,0,0.818,0.366,0.818,0.818v8.638C634.623,88.758,634.257,89.124,633.805,89.124z"/>
</g>
<g>
	<path class="st3" d="M617.666,89.124h-8.638c-0.452,0-0.818-0.366-0.818-0.818v-8.638c0-0.452,0.366-0.818,0.818-0.818h8.638
		c0.452,0,0.818,0.366,0.818,0.818v8.638C618.484,88.758,618.118,89.124,617.666,89.124z"/>
</g>
<g>
	<path class="st3" d="M601.531,89.124h-8.638c-0.452,0-0.818-0.366-0.818-0.818v-8.638c0-0.452,0.366-0.818,0.818-0.818h8.638
		c0.452,0,0.818,0.366,0.818,0.818v8.638C602.349,88.758,601.982,89.124,601.531,89.124z"/>
</g>
<g>
	<path class="st3" d="M585.395,89.124h-8.638c-0.452,0-0.818-0.366-0.818-0.818v-8.638c0-0.452,0.366-0.818,0.818-0.818h8.638
		c0.452,0,0.818,0.366,0.818,0.818v8.638C586.213,88.758,585.847,89.124,585.395,89.124z"/>
</g>
<g>
	<path class="st3" d="M568.99,89.124h-8.638c-0.452,0-0.818-0.366-0.818-0.818v-8.638c0-0.452,0.366-0.818,0.818-0.818h8.638
		c0.452,0,0.818,0.366,0.818,0.818v8.638C569.808,88.758,569.442,89.124,568.99,89.124z"/>
</g>
<g>
	<path class="st3" d="M650.454,89.124h-8.638c-0.452,0-0.818-0.366-0.818-0.818v-8.638c0-0.452,0.366-0.818,0.818-0.818h8.638
		c0.452,0,0.818,0.366,0.818,0.818v8.638C651.272,88.758,650.906,89.124,650.454,89.124z"/>
</g>
</svg>
